#N canvas 567 0 749 716 10;
#X obj 49 564 -~;
#X obj 67 702 /~;
#X obj 49 783 *~;
#X text 199 732 NORMALIZATION FAKTOR;
#X text 120 524 FILTERING;
#X obj 67 679 samplerate~;
#X obj 67 656 loadbang;
#X obj 50 248 -~;
#X obj 45 50 phasor~;
#X obj 45 84 -~ 0.5;
#X obj 50 109 *~ 2;
#X text 94 91 DC OFFSET;
#X obj 50 621 -~;
#X obj 71 593 z~;
#X obj 70 536 z~;
#X obj 45 13 inlet;
#X obj 48 816 outlet~;
#X text 235 147 Vesa Välimäki \, Juhan Nam \, Julius O. Smith \,
and Jonathan S. Abel: Alias-Suppressed Oscillators Based on Differentiated
Polynomial Waveforms \, IEEE TRANSACTIONS ON AUDIO \, SPEECH \, AND
LANGUAGE PROCESSING \, VOL. 18 \, NO. 4 \, MAY 2010, f 63;
#X text 241 226 by bilberry79.;
#X obj 50 512 -~;
#X obj 71 484 z~;
#X text 136 8 6-th order DPW;
#X obj 50 145 expr~ pow($v1 \, 6);
#X obj 90 179 expr~ pow($v1 \, 4);
#X obj 90 204 *~ 5;
#X obj 62 275 expr~ pow($v1 \, 2);
#X obj 62 300 *~ 7;
#X obj 51 336 +~;
#X obj 51 449 -~;
#X obj 72 421 z~;
#X obj 52 397 -~;
#X obj 73 369 z~;
#X obj 67 731 expr~ pow($v1 \, 5);
#X obj 67 758 /~ 23040;
#X connect 0 0 12 0;
#X connect 0 0 13 0;
#X connect 1 0 32 0;
#X connect 2 0 16 0;
#X connect 5 0 1 0;
#X connect 6 0 5 0;
#X connect 7 0 27 0;
#X connect 8 0 9 0;
#X connect 9 0 10 0;
#X connect 10 0 22 0;
#X connect 10 0 23 0;
#X connect 10 0 25 0;
#X connect 12 0 2 0;
#X connect 13 0 12 1;
#X connect 14 0 0 1;
#X connect 15 0 8 0;
#X connect 15 0 1 1;
#X connect 19 0 0 0;
#X connect 19 0 14 0;
#X connect 20 0 19 1;
#X connect 22 0 7 0;
#X connect 23 0 24 0;
#X connect 24 0 7 1;
#X connect 25 0 26 0;
#X connect 26 0 27 1;
#X connect 27 0 31 0;
#X connect 27 0 30 0;
#X connect 28 0 19 0;
#X connect 28 0 20 0;
#X connect 29 0 28 1;
#X connect 30 0 28 0;
#X connect 30 0 29 0;
#X connect 31 0 30 1;
#X connect 32 0 33 0;
#X connect 33 0 2 1;
