#N canvas 0 50 1366 716 10;
#X obj 27 129 phasor~;
#X obj 27 192 -~ 0.25;
#X obj 26 216 cos~;
#X obj 27 305 -~;
#X obj 87 191 -~ 0.25;
#X obj 87 216 cos~;
#X obj 87 169 -~;
#X obj 28 389 /~;
#X obj 101 285 sig~ 1;
#X obj 101 312 +~;
#X obj 87 260 *~;
#X obj 149 283 *~;
#X obj 149 226 sig~;
#X obj 101 348 -~;
#X obj 215 257 *~ 2;
#X obj 231 217 cos~;
#X obj 214 306 *~;
#X obj 152 139 phasor~;
#X obj 27 81 sig~;
#X obj 151 118 *~;
#X obj 168 83 sig~;
#X obj 29 415 hip~ 1;
#X floatatom 27 63 5 0 0 2 freq - -, f 5;
#X obj 298 121 /;
#X obj 284 55 t b f;
#X floatatom 298 166 5 0 0 0 - - -, f 5;
#X floatatom 298 207 5 0 0 0 - - -, f 5;
#X obj 298 185 rmstodb;
#X obj 271 87 22050;
#X obj 298 144 / 22050;
#X text 741 105 Patch source by: Farnell \, Andy \, Designing sound
\, MIT press.;
#X text 740 138 1 sided infinite spectrum. FORMULA (2);
#X text 741 165 by bilberry79.;
#X text 741 50 Moorer \, James A. \, The synthesis of complex audio
spectra by means of discrete summation formulae \, Center for computer
research in music and acoustics \, 1975;
#X obj 396 55 cnv 15 300 120 empty empty empty 20 12 0 14 -233017 -66577
0;
#X floatatom 478 112 5 0 300 2 Fm_(rel._to_Fc) - -, f 5;
#X obj 478 132 / 100;
#X floatatom 595 112 5 0 20000 2 A - -, f 5;
#X obj 596 131 / 100;
#X floatatom 404 113 5 0 300 2 Fc - -, f 5;
#X text 483 66 50 = 0.5 * Fc;
#X text 476 80 100 = 1 * Fc;
#X text 133 487 NORMALIZATION;
#X obj 28 607 *~ 0.5;
#X obj 48 442 sig~ 1;
#X obj 47 534 -~;
#X obj 64 512 *~;
#X obj 64 486 sig~;
#X obj 46 557 sqrt~;
#X obj 28 579 *~;
#X text 85 609 NOT PERFECT BUT IT WORKS;
#X obj 28 635 outlet~;
#X obj 404 24 inlet;
#X obj 478 24 inlet;
#X obj 595 25 inlet;
#X obj 27 29 r \$0-freq;
#X obj 168 62 r \$0-dist;
#X obj 149 205 r \$0-index;
#X obj 64 465 r \$0-index;
#X obj 404 134 s \$0-freq;
#X obj 478 153 s \$0-dist;
#X obj 595 152 s \$0-index;
#X connect 0 0 1 0;
#X connect 0 0 6 0;
#X connect 1 0 2 0;
#X connect 2 0 3 0;
#X connect 3 0 7 0;
#X connect 4 0 5 0;
#X connect 5 0 10 0;
#X connect 6 0 4 0;
#X connect 7 0 21 0;
#X connect 8 0 9 0;
#X connect 9 0 13 0;
#X connect 10 0 3 1;
#X connect 11 0 9 1;
#X connect 12 0 11 0;
#X connect 12 0 11 1;
#X connect 12 0 14 0;
#X connect 12 0 10 1;
#X connect 13 0 7 1;
#X connect 14 0 16 0;
#X connect 15 0 16 1;
#X connect 16 0 13 1;
#X connect 17 0 6 1;
#X connect 17 0 15 0;
#X connect 18 0 0 0;
#X connect 18 0 19 0;
#X connect 19 0 17 0;
#X connect 20 0 19 1;
#X connect 21 0 49 0;
#X connect 22 0 18 0;
#X connect 22 0 24 0;
#X connect 23 0 29 0;
#X connect 24 0 28 0;
#X connect 24 1 23 1;
#X connect 25 0 27 0;
#X connect 27 0 26 0;
#X connect 28 0 23 0;
#X connect 29 0 25 0;
#X connect 35 0 36 0;
#X connect 36 0 60 0;
#X connect 37 0 38 0;
#X connect 38 0 61 0;
#X connect 39 0 59 0;
#X connect 43 0 51 0;
#X connect 44 0 45 0;
#X connect 45 0 48 0;
#X connect 46 0 45 1;
#X connect 47 0 46 0;
#X connect 47 0 46 1;
#X connect 48 0 49 1;
#X connect 49 0 43 0;
#X connect 52 0 39 0;
#X connect 53 0 35 0;
#X connect 54 0 37 0;
#X connect 55 0 22 0;
#X connect 56 0 20 0;
#X connect 57 0 12 0;
#X connect 58 0 47 0;
