#N canvas -8 -8 1366 725 10;
#X obj 43 139 phasor~;
#X obj 42 220 -~ 0.25;
#X obj 41 244 cos~;
#X obj 41 792 /~;
#X obj 167 140 phasor~;
#X obj 43 110 sig~;
#X obj 166 119 *~;
#X obj 184 93 sig~;
#X obj 42 819 hip~ 1;
#X obj 184 72 r dist;
#X floatatom 43 92 5 0 0 2 freq - -, f 5;
#X obj 59 281 sig~ 1;
#X obj 59 383 -~;
#X obj 76 356 *~;
#X obj 76 323 sig~;
#X obj 76 302 r index;
#X obj 61 448 -~;
#X obj 278 249 sig~;
#X obj 278 228 r index;
#X obj 279 345 pow~;
#X obj 280 370 *~ 2;
#X obj 160 260 r n;
#X obj 160 283 sig~;
#X obj 142 330 *~;
#X obj 141 353 cos~;
#X obj 141 381 -~;
#X obj 214 289 sig~;
#X obj 214 268 r index;
#X obj 214 172 r n;
#X obj 214 196 sig~;
#X obj 196 222 *~;
#X obj 197 245 cos~;
#X obj 197 311 *~;
#X obj 42 473 *~;
#X obj 78 502 sig~ 1;
#X obj 78 601 +~;
#X obj 96 577 *~;
#X obj 96 544 sig~;
#X obj 96 523 r index;
#X obj 79 763 -~;
#X obj 99 625 sig~ 2;
#X obj 98 693 *~;
#X obj 116 668 sig~;
#X obj 116 647 r index;
#X obj 115 715 cos~;
#X obj 97 738 *~;
#X obj 159 305 +~ 1;
#X obj 310 274 r n;
#X obj 310 297 sig~;
#X obj 309 319 +~ 1;
#X obj 79 416 *~;
#X obj 43 55 r freq;
#X text 743 172 by bilberry79.;
#X text 743 58 Moorer \, James A. \, The synthesis of complex audio
spectra by means of discrete summation formulae \, Center for computer
research in music and acoustics \, 1975;
#X text 743 138 2 sided finite spectrum. FORMULA (3);
#X obj 391 61 cnv 15 300 120 empty empty empty 20 12 0 14 -233017 -66577
0;
#X floatatom 449 118 5 0 300 2 Fm_(rel._to_Fc) - -, f 5;
#X obj 449 138 / 100;
#X floatatom 569 118 5 0 99 2 A - -, f 5;
#X obj 449 159 s dist;
#X obj 569 159 s index;
#X obj 570 137 / 100;
#X floatatom 640 119 5 0 100 2 N - -, f 5;
#X obj 640 139 s n;
#X floatatom 397 119 5 0 0 2 Fc - -, f 5;
#X obj 397 139 s freq;
#X text 743 111 Patch base: Farnell \, Andy \, Designing sound \, MIT
press.;
#X text 458 62 50 = 0.5 * Fc;
#X text 451 77 100 = 1 * Fc;
#X obj 63 882 sig~ 1;
#X obj 62 981 -~;
#X obj 79 959 *~;
#X obj 79 926 sig~;
#X obj 79 905 r index;
#X obj 103 1009 /~;
#X obj 143 824 sig~ 1;
#X obj 159 901 *~;
#X obj 159 868 sig~;
#X obj 159 847 r index;
#X obj 142 923 +~;
#X obj 142 972 -~;
#X obj 216 815 sig~ 2;
#X obj 235 860 sig~;
#X obj 235 839 r index;
#X obj 216 886 *~;
#X obj 215 923 pow~;
#X obj 298 824 r n;
#X obj 298 847 sig~;
#X obj 297 869 *~ 2;
#X obj 297 891 +~ 2;
#X obj 102 1034 sqrt~;
#X obj 41 1061 *~;
#X text 364 888 NORMALIZATION;
#X obj 41 1086 *~ 0.5;
#X text 101 1085 NOT PERFECT BUT OKAY;
#X obj 41 1109 outlet~;
#X obj 397 32 inlet;
#X obj 449 33 inlet;
#X obj 569 34 inlet;
#X obj 640 34 inlet;
#X connect 0 0 1 0;
#X connect 1 0 2 0;
#X connect 2 0 33 0;
#X connect 3 0 8 0;
#X connect 4 0 44 0;
#X connect 4 0 30 0;
#X connect 4 0 23 0;
#X connect 5 0 0 0;
#X connect 5 0 6 0;
#X connect 6 0 4 0;
#X connect 7 0 6 1;
#X connect 8 0 91 0;
#X connect 9 0 7 0;
#X connect 10 0 5 0;
#X connect 11 0 12 0;
#X connect 12 0 16 0;
#X connect 13 0 12 1;
#X connect 14 0 13 0;
#X connect 14 0 13 1;
#X connect 15 0 14 0;
#X connect 16 0 33 1;
#X connect 17 0 19 0;
#X connect 18 0 17 0;
#X connect 19 0 20 0;
#X connect 20 0 50 1;
#X connect 21 0 22 0;
#X connect 22 0 46 0;
#X connect 23 0 24 0;
#X connect 24 0 25 0;
#X connect 25 0 50 0;
#X connect 26 0 32 1;
#X connect 27 0 26 0;
#X connect 28 0 29 0;
#X connect 29 0 30 1;
#X connect 30 0 31 0;
#X connect 31 0 32 0;
#X connect 32 0 25 1;
#X connect 33 0 3 0;
#X connect 34 0 35 0;
#X connect 35 0 39 0;
#X connect 36 0 35 1;
#X connect 37 0 36 0;
#X connect 37 0 36 1;
#X connect 38 0 37 0;
#X connect 39 0 3 1;
#X connect 40 0 41 0;
#X connect 41 0 45 0;
#X connect 42 0 41 1;
#X connect 43 0 42 0;
#X connect 44 0 45 1;
#X connect 45 0 39 1;
#X connect 46 0 23 1;
#X connect 47 0 48 0;
#X connect 48 0 49 0;
#X connect 49 0 19 1;
#X connect 50 0 16 1;
#X connect 51 0 10 0;
#X connect 56 0 57 0;
#X connect 57 0 59 0;
#X connect 58 0 61 0;
#X connect 61 0 60 0;
#X connect 62 0 63 0;
#X connect 64 0 65 0;
#X connect 69 0 70 0;
#X connect 70 0 74 0;
#X connect 71 0 70 1;
#X connect 72 0 71 0;
#X connect 72 0 71 1;
#X connect 73 0 72 0;
#X connect 74 0 90 0;
#X connect 75 0 79 0;
#X connect 76 0 79 1;
#X connect 77 0 76 0;
#X connect 77 0 76 1;
#X connect 78 0 77 0;
#X connect 79 0 80 0;
#X connect 80 0 74 1;
#X connect 81 0 84 0;
#X connect 82 0 84 1;
#X connect 83 0 82 0;
#X connect 84 0 85 0;
#X connect 85 0 80 1;
#X connect 86 0 87 0;
#X connect 87 0 88 0;
#X connect 88 0 89 0;
#X connect 89 0 85 1;
#X connect 90 0 91 1;
#X connect 91 0 93 0;
#X connect 93 0 95 0;
#X connect 96 0 64 0;
#X connect 97 0 56 0;
#X connect 98 0 58 0;
#X connect 99 0 62 0;
