#N canvas 133 309 450 300 10;
#X floatatom 21 67 5 0 0 1 Frequency_in_Hz - -, f 5;
#X floatatom 54 93 5 0 0 1 Modulation_ratio - -, f 5;
#X floatatom 88 123 5 0 99 1 Amplitude_of_overtone_spectrum_(a) - -
, f 5;
#X obj 21 219 dac~;
#X msg 247 56 \; pd dsp 1;
#X msg 320 56 \; pd dsp 0;
#X text 202 193 Modulation ration: 50 := 0.5*Fc \, 100 = 1*Fc etc.
Get harmonic spectrum with values of 100 \, 200 \, 300 etc., f 32
;
#X text 135 138 choose a < 100;
#X text 24 9 Discrete summation formula (DSF) adapted from Moorer 1975
This module creates a 1-sided infinite spectrum.;
#X obj 21 174 dsf1infin~;
#X text 332 271 by bilberry79;
#X connect 0 0 9 0;
#X connect 1 0 9 1;
#X connect 2 0 9 2;
#X connect 9 0 3 0;
#X connect 9 0 3 1;
