#N canvas -8 -8 1366 725 10;
#X obj 116 120 phasor~;
#X obj 116 155 -~ 0.25;
#X obj 115 179 cos~;
#X obj 258 120 phasor~;
#X obj 116 72 sig~;
#X obj 257 99 *~;
#X obj 274 61 sig~;
#X floatatom 116 54 5 0 0 2 freq - -, f 5;
#X obj 40 191 sig~ 1;
#X obj 60 296 *~;
#X obj 60 239 sig~;
#X obj 40 322 -~;
#X obj 97 353 *~;
#X obj 98 383 /~;
#X obj 129 258 sig~ 1;
#X obj 129 285 +~;
#X obj 177 256 *~;
#X obj 177 199 sig~;
#X obj 241 229 *~ 2;
#X obj 257 189 cos~;
#X obj 240 278 *~;
#X obj 98 640 hip~ 1;
#X obj 152 335 -~;
#X obj 213 410 sig~ 1;
#X obj 229 487 *~;
#X obj 229 455 sig~;
#X obj 212 508 +~;
#X obj 113 410 sig~ 1;
#X obj 114 507 -~;
#X obj 132 485 *~;
#X obj 132 453 sig~;
#X obj 151 542 /~;
#X obj 150 570 sqrt~;
#X obj 99 597 *~;
#X text 302 469 NORMALIZATION;
#X obj 389 56 cnv 15 300 120 empty empty empty 20 12 0 14 -233017 -66577
0;
#X floatatom 478 104 5 0 300 2 Fm_(rel._to_Fc) - -, f 5;
#X obj 478 124 / 100;
#X floatatom 601 105 5 0 20000 2 A - -, f 5;
#X obj 602 124 / 100;
#X floatatom 406 106 5 0 0 2 Fc - -, f 5;
#X text 475 72 100 = 1 * Fc;
#X text 482 60 50 = 0.5 * Fc;
#X text 712 52 Moorer \, James A. \, The synthesis of complex audio
spectra by means of discrete summation formulae \, Center for computer
research in music and acoustics \, 1975;
#X text 712 102 Patch base: Farnell \, Andy \, Designing sound \, MIT
press.;
#X text 712 153 by bilberry79.;
#X text 712 127 2 sided infinite spectrum. FORMULA (4);
#X obj 99 618 *~ 0.5;
#X text 163 619 NOT PERFECT BUT OKAY;
#X obj 98 665 outlet~;
#X obj 406 29 inlet;
#X obj 478 28 inlet;
#X obj 601 28 inlet;
#X obj 116 17 r \$0-freq;
#X obj 274 40 r \$0-dist;
#X obj 60 218 r \$0-index;
#X obj 177 178 r \$0-index;
#X obj 132 432 r \$0-index;
#X obj 229 432 r \$0-index;
#X obj 406 125 s \$0-freq;
#X obj 478 147 s \$0-dist;
#X obj 602 146 s \$0-index;
#X connect 0 0 1 0;
#X connect 1 0 2 0;
#X connect 2 0 12 1;
#X connect 3 0 19 0;
#X connect 4 0 0 0;
#X connect 4 0 5 0;
#X connect 5 0 3 0;
#X connect 6 0 5 1;
#X connect 7 0 4 0;
#X connect 8 0 11 0;
#X connect 9 0 11 1;
#X connect 10 0 9 0;
#X connect 10 0 9 1;
#X connect 11 0 12 0;
#X connect 12 0 13 0;
#X connect 13 0 33 0;
#X connect 14 0 15 0;
#X connect 15 0 22 0;
#X connect 16 0 15 1;
#X connect 17 0 16 0;
#X connect 17 0 16 1;
#X connect 17 0 18 0;
#X connect 18 0 20 0;
#X connect 19 0 20 1;
#X connect 20 0 22 1;
#X connect 21 0 49 0;
#X connect 22 0 13 1;
#X connect 23 0 26 0;
#X connect 24 0 26 1;
#X connect 25 0 24 0;
#X connect 25 0 24 1;
#X connect 26 0 31 1;
#X connect 27 0 28 0;
#X connect 28 0 31 0;
#X connect 29 0 28 1;
#X connect 30 0 29 0;
#X connect 30 0 29 1;
#X connect 31 0 32 0;
#X connect 32 0 33 1;
#X connect 33 0 47 0;
#X connect 36 0 37 0;
#X connect 37 0 60 0;
#X connect 38 0 39 0;
#X connect 39 0 61 0;
#X connect 40 0 59 0;
#X connect 47 0 21 0;
#X connect 50 0 40 0;
#X connect 51 0 36 0;
#X connect 52 0 38 0;
#X connect 53 0 7 0;
#X connect 54 0 6 0;
#X connect 55 0 10 0;
#X connect 56 0 17 0;
#X connect 57 0 30 0;
#X connect 58 0 25 0;
