#N canvas -8 -8 1366 725 10;
#X obj 43 139 phasor~;
#X obj 42 220 -~ 0.25;
#X obj 41 244 cos~;
#X obj 41 792 /~;
#X obj 167 140 phasor~;
#X obj 43 110 sig~;
#X obj 166 119 *~;
#X obj 184 93 sig~;
#X obj 42 819 hip~ 1;
#X floatatom 43 92 5 0 0 2 freq - -, f 5;
#X obj 59 281 sig~ 1;
#X obj 59 383 -~;
#X obj 76 356 *~;
#X obj 76 323 sig~;
#X obj 61 448 -~;
#X obj 304 249 sig~;
#X obj 305 345 pow~;
#X obj 306 370 *~ 2;
#X obj 160 283 sig~;
#X obj 142 330 *~;
#X obj 141 353 cos~;
#X obj 141 381 -~;
#X obj 226 289 sig~;
#X obj 226 196 sig~;
#X obj 208 222 *~;
#X obj 209 245 cos~;
#X obj 209 311 *~;
#X obj 42 473 *~;
#X obj 78 502 sig~ 1;
#X obj 78 601 +~;
#X obj 96 577 *~;
#X obj 96 544 sig~;
#X obj 79 763 -~;
#X obj 99 625 sig~ 2;
#X obj 98 693 *~;
#X obj 116 668 sig~;
#X obj 115 715 cos~;
#X obj 97 738 *~;
#X obj 159 305 +~ 1;
#X obj 336 297 sig~;
#X obj 335 319 +~ 1;
#X obj 79 416 *~;
#X text 743 172 by bilberry79.;
#X text 743 58 Moorer \, James A. \, The synthesis of complex audio
spectra by means of discrete summation formulae \, Center for computer
research in music and acoustics \, 1975;
#X text 743 138 2 sided finite spectrum. FORMULA (3);
#X obj 389 61 cnv 15 300 120 empty empty empty 20 12 0 14 -233017 -66577
0;
#X floatatom 462 118 5 0 300 2 Fm_(rel._to_Fc) - -, f 5;
#X obj 462 138 / 100;
#X floatatom 571 118 5 0 99 2 A - -, f 5;
#X obj 572 137 / 100;
#X floatatom 640 119 5 0 100 2 N - -, f 5;
#X floatatom 393 119 5 0 0 2 Fc - -, f 5;
#X text 743 111 Patch base: Farnell \, Andy \, Designing sound \, MIT
press.;
#X text 471 62 50 = 0.5 * Fc;
#X text 464 77 100 = 1 * Fc;
#X obj 63 882 sig~ 1;
#X obj 62 981 -~;
#X obj 79 959 *~;
#X obj 79 926 sig~;
#X obj 103 1009 /~;
#X obj 157 824 sig~ 1;
#X obj 173 901 *~;
#X obj 173 868 sig~;
#X obj 156 923 +~;
#X obj 156 972 -~;
#X obj 249 815 sig~ 2;
#X obj 268 860 sig~;
#X obj 249 886 *~;
#X obj 249 923 pow~;
#X obj 349 847 sig~;
#X obj 348 869 *~ 2;
#X obj 348 891 +~ 2;
#X obj 102 1034 sqrt~;
#X obj 41 1061 *~;
#X text 415 888 NORMALIZATION;
#X obj 41 1086 *~ 0.5;
#X text 101 1085 NOT PERFECT BUT OKAY;
#X obj 41 1109 outlet~;
#X obj 393 32 inlet;
#X obj 462 33 inlet;
#X obj 571 34 inlet;
#X obj 640 34 inlet;
#X obj 42 55 r \$0-freq;
#X obj 184 72 r \$0-dist;
#X obj 226 172 r \$0-n;
#X obj 226 268 r \$0-index;
#X obj 304 228 r \$0-index;
#X obj 336 274 r \$0-n;
#X obj 160 260 r \$0-n;
#X obj 76 302 r \$0-index;
#X obj 96 523 r \$0-index;
#X obj 116 647 r \$0-index;
#X obj 79 905 r \$0-index;
#X obj 173 847 r \$0-index;
#X obj 268 839 r \$0-index;
#X obj 349 824 r \$0-n;
#X obj 393 138 s \$0-freq;
#X obj 462 159 s \$0-dist;
#X obj 572 159 s \$0-index;
#X obj 640 139 s \$0-n;
#X connect 0 0 1 0;
#X connect 1 0 2 0;
#X connect 2 0 27 0;
#X connect 3 0 8 0;
#X connect 4 0 36 0;
#X connect 4 0 24 0;
#X connect 4 0 19 0;
#X connect 5 0 0 0;
#X connect 5 0 6 0;
#X connect 6 0 4 0;
#X connect 7 0 6 1;
#X connect 8 0 73 0;
#X connect 9 0 5 0;
#X connect 10 0 11 0;
#X connect 11 0 14 0;
#X connect 12 0 11 1;
#X connect 13 0 12 0;
#X connect 13 0 12 1;
#X connect 14 0 27 1;
#X connect 15 0 16 0;
#X connect 16 0 17 0;
#X connect 17 0 41 1;
#X connect 18 0 38 0;
#X connect 19 0 20 0;
#X connect 20 0 21 0;
#X connect 21 0 41 0;
#X connect 22 0 26 1;
#X connect 23 0 24 1;
#X connect 24 0 25 0;
#X connect 25 0 26 0;
#X connect 26 0 21 1;
#X connect 27 0 3 0;
#X connect 28 0 29 0;
#X connect 29 0 32 0;
#X connect 30 0 29 1;
#X connect 31 0 30 0;
#X connect 31 0 30 1;
#X connect 32 0 3 1;
#X connect 33 0 34 0;
#X connect 34 0 37 0;
#X connect 35 0 34 1;
#X connect 36 0 37 1;
#X connect 37 0 32 1;
#X connect 38 0 19 1;
#X connect 39 0 40 0;
#X connect 40 0 16 1;
#X connect 41 0 14 1;
#X connect 46 0 47 0;
#X connect 47 0 97 0;
#X connect 48 0 49 0;
#X connect 49 0 98 0;
#X connect 50 0 99 0;
#X connect 51 0 96 0;
#X connect 55 0 56 0;
#X connect 56 0 59 0;
#X connect 57 0 56 1;
#X connect 58 0 57 0;
#X connect 58 0 57 1;
#X connect 59 0 72 0;
#X connect 60 0 63 0;
#X connect 61 0 63 1;
#X connect 62 0 61 0;
#X connect 62 0 61 1;
#X connect 63 0 64 0;
#X connect 64 0 59 1;
#X connect 65 0 67 0;
#X connect 66 0 67 1;
#X connect 67 0 68 0;
#X connect 68 0 64 1;
#X connect 69 0 70 0;
#X connect 70 0 71 0;
#X connect 71 0 68 1;
#X connect 72 0 73 1;
#X connect 73 0 75 0;
#X connect 75 0 77 0;
#X connect 78 0 51 0;
#X connect 79 0 46 0;
#X connect 80 0 48 0;
#X connect 81 0 50 0;
#X connect 82 0 9 0;
#X connect 83 0 7 0;
#X connect 84 0 23 0;
#X connect 85 0 22 0;
#X connect 86 0 15 0;
#X connect 87 0 39 0;
#X connect 88 0 18 0;
#X connect 89 0 13 0;
#X connect 90 0 31 0;
#X connect 91 0 35 0;
#X connect 92 0 58 0;
#X connect 93 0 62 0;
#X connect 94 0 66 0;
#X connect 95 0 69 0;
